<svg viewBox="0 0 330 200" xmlns="http://www.w3.org/2000/svg"><g><g><g><g><g><line x1="51.5625" y1="165" x2="46.5625" y2="165" style="visibility: inherit;" fill="rgb(0, 0, 0)" stroke="rgb(204, 204, 204)" stroke-width="1px"></line><line x1="51.5625" y1="149.99999999999997" x2="46.5625" y2="149.99999999999997" style="visibility: inherit;" fill="rgb(0, 0, 0)" stroke="rgb(204, 204, 204)" stroke-width="1px"></line><line x1="51.5625" y1="134.99999999999997" x2="46.5625" y2="134.99999999999997" style="visibility: inherit;" fill="rgb(0, 0, 0)" stroke="rgb(204, 204, 204)" stroke-width="1px"></line><line x1="51.5625" y1="119.99999999999997" x2="46.5625" y2="119.99999999999997" style="visibility: inherit;" fill="rgb(0, 0, 0)" stroke="rgb(204, 204, 204)" stroke-width="1px"></line><line x1="51.5625" y1="104.99999999999994" x2="46.5625" y2="104.99999999999994" style="visibility: inherit;" fill="rgb(0, 0, 0)" stroke="rgb(204, 204, 204)" stroke-width="1px"></line><line x1="51.5625" y1="89.99999999999991" x2="46.5625" y2="89.99999999999991" style="visibility: inherit;" fill="rgb(0, 0, 0)" stroke="rgb(204, 204, 204)" stroke-width="1px"></line><line x1="51.5625" y1="74.99999999999991" x2="46.5625" y2="74.99999999999991" style="visibility: inherit;" fill="rgb(0, 0, 0)" stroke="rgb(204, 204, 204)" stroke-width="1px"></line><line x1="51.5625" y1="59.99999999999989" x2="46.5625" y2="59.99999999999989" style="visibility: inherit;" fill="rgb(0, 0, 0)" stroke="rgb(204, 204, 204)" stroke-width="1px"></line><line x1="51.5625" y1="44.999999999999886" x2="46.5625" y2="44.999999999999886" style="visibility: inherit;" fill="rgb(0, 0, 0)" stroke="rgb(204, 204, 204)" stroke-width="1px"></line><line x1="51.5625" y1="29.999999999999865" x2="46.5625" y2="29.999999999999865" style="visibility: inherit;" fill="rgb(0, 0, 0)" stroke="rgb(204, 204, 204)" stroke-width="1px"></line><line x1="51.5625" y1="15.000000000000023" x2="46.5625" y2="15.000000000000023" style="visibility: inherit;" fill="rgb(0, 0, 0)" stroke="rgb(204, 204, 204)" stroke-width="1px"></line><line x1="51.5625" y1="0" x2="46.5625" y2="0" style="visibility: inherit;" fill="rgb(0, 0, 0)" stroke="rgb(204, 204, 204)" stroke-width="1px"></line></g><g transform="translate(41.5625, 0)"><text x="0" y="165" dx="0em" dy="0.3em" style="text-anchor: end; visibility: hidden; font-family: Roboto, sans-serif; font-size: 12px; font-weight: 200;" fill="rgb(33, 33, 33)" stroke="none" stroke-width="1px">0.59</text><text x="0" y="149.99999999999997" dx="0em" dy="0.3em" style="text-anchor: end; visibility: inherit; font-family: Roboto, sans-serif; font-size: 12px; font-weight: 200;" fill="rgb(33, 33, 33)" stroke="none" stroke-width="1px">0.6</text><text x="0" y="134.99999999999997" dx="0em" dy="0.3em" style="text-anchor: end; visibility: hidden; font-family: Roboto, sans-serif; font-size: 12px; font-weight: 200;" fill="rgb(33, 33, 33)" stroke="none" stroke-width="1px">0.61</text><text x="0" y="119.99999999999997" dx="0em" dy="0.3em" style="text-anchor: end; visibility: inherit; font-family: Roboto, sans-serif; font-size: 12px; font-weight: 200;" fill="rgb(33, 33, 33)" stroke="none" stroke-width="1px">0.62</text><text x="0" y="104.99999999999994" dx="0em" dy="0.3em" style="text-anchor: end; visibility: hidden; font-family: Roboto, sans-serif; font-size: 12px; font-weight: 200;" fill="rgb(33, 33, 33)" stroke="none" stroke-width="1px">0.63</text><text x="0" y="89.99999999999991" dx="0em" dy="0.3em" style="text-anchor: end; visibility: inherit; font-family: Roboto, sans-serif; font-size: 12px; font-weight: 200;" fill="rgb(33, 33, 33)" stroke="none" stroke-width="1px">0.64</text><text x="0" y="74.99999999999991" dx="0em" dy="0.3em" style="text-anchor: end; visibility: hidden; font-family: Roboto, sans-serif; font-size: 12px; font-weight: 200;" fill="rgb(33, 33, 33)" stroke="none" stroke-width="1px">0.65</text><text x="0" y="59.99999999999989" dx="0em" dy="0.3em" style="text-anchor: end; visibility: inherit; font-family: Roboto, sans-serif; font-size: 12px; font-weight: 200;" fill="rgb(33, 33, 33)" stroke="none" stroke-width="1px">0.66</text><text x="0" y="44.999999999999886" dx="0em" dy="0.3em" style="text-anchor: end; visibility: hidden; font-family: Roboto, sans-serif; font-size: 12px; font-weight: 200;" fill="rgb(33, 33, 33)" stroke="none" stroke-width="1px">0.67</text><text x="0" y="29.999999999999865" dx="0em" dy="0.3em" style="text-anchor: end; visibility: inherit; font-family: Roboto, sans-serif; font-size: 12px; font-weight: 200;" fill="rgb(33, 33, 33)" stroke="none" stroke-width="1px">0.68</text><text x="0" y="15.000000000000023" dx="0em" dy="0.3em" style="text-anchor: end; visibility: hidden; font-family: Roboto, sans-serif; font-size: 12px; font-weight: 200;" fill="rgb(33, 33, 33)" stroke="none" stroke-width="1px">0.69</text><text x="0" y="0" dx="0em" dy="0.3em" style="text-anchor: end; visibility: hidden; font-family: Roboto, sans-serif; font-size: 12px; font-weight: 200;" fill="rgb(33, 33, 33)" stroke="none" stroke-width="1px">0.7</text></g><line x1="51.5625" y1="0" x2="51.5625" y2="165" fill="rgb(0, 0, 0)" stroke="rgb(204, 204, 204)" stroke-width="1px"></line></g></g><g transform="translate(51, 0)" clip-path="url(#clip_0)"><clipPath id="clip_0"><rect width="278" height="165"></rect></clipPath><g><g><g><line x1="15.46875" y1="0" x2="15.46875" y2="165" fill="rgb(0, 0, 0)" stroke="rgb(66, 66, 66)" stroke-width="1px" opacity="0.25"></line><line x1="61.875" y1="0" x2="61.875" y2="165" fill="rgb(0, 0, 0)" stroke="rgb(66, 66, 66)" stroke-width="1px" opacity="0.25"></line><line x1="108.28125" y1="0" x2="108.28125" y2="165" fill="rgb(0, 0, 0)" stroke="rgb(66, 66, 66)" stroke-width="1px" opacity="0.25"></line><line x1="154.6875" y1="0" x2="154.6875" y2="165" fill="rgb(0, 0, 0)" stroke="rgb(66, 66, 66)" stroke-width="1px" opacity="0.25"></line><line x1="201.09375" y1="0" x2="201.09375" y2="165" fill="rgb(0, 0, 0)" stroke="rgb(66, 66, 66)" stroke-width="1px" opacity="0.25"></line><line x1="247.5" y1="0" x2="247.5" y2="165" fill="rgb(0, 0, 0)" stroke="rgb(66, 66, 66)" stroke-width="1px" opacity="0.25"></line></g><g><line x1="0" y1="165" x2="278.4375" y2="165" fill="rgb(0, 0, 0)" stroke="rgb(66, 66, 66)" stroke-width="1px" opacity="0.25"></line><line x1="0" y1="149.99999999999997" x2="278.4375" y2="149.99999999999997" fill="rgb(0, 0, 0)" stroke="rgb(66, 66, 66)" stroke-width="1px" opacity="0.25"></line><line x1="0" y1="134.99999999999997" x2="278.4375" y2="134.99999999999997" fill="rgb(0, 0, 0)" stroke="rgb(66, 66, 66)" stroke-width="1px" opacity="0.25"></line><line x1="0" y1="119.99999999999997" x2="278.4375" y2="119.99999999999997" fill="rgb(0, 0, 0)" stroke="rgb(66, 66, 66)" stroke-width="1px" opacity="0.25"></line><line x1="0" y1="104.99999999999994" x2="278.4375" y2="104.99999999999994" fill="rgb(0, 0, 0)" stroke="rgb(66, 66, 66)" stroke-width="1px" opacity="0.25"></line><line x1="0" y1="89.99999999999991" x2="278.4375" y2="89.99999999999991" fill="rgb(0, 0, 0)" stroke="rgb(66, 66, 66)" stroke-width="1px" opacity="0.25"></line><line x1="0" y1="74.99999999999991" x2="278.4375" y2="74.99999999999991" fill="rgb(0, 0, 0)" stroke="rgb(66, 66, 66)" stroke-width="1px" opacity="0.25"></line><line x1="0" y1="59.99999999999989" x2="278.4375" y2="59.99999999999989" fill="rgb(0, 0, 0)" stroke="rgb(66, 66, 66)" stroke-width="1px" opacity="0.25"></line><line x1="0" y1="44.999999999999886" x2="278.4375" y2="44.999999999999886" fill="rgb(0, 0, 0)" stroke="rgb(66, 66, 66)" stroke-width="1px" opacity="0.25"></line><line x1="0" y1="29.999999999999865" x2="278.4375" y2="29.999999999999865" fill="rgb(0, 0, 0)" stroke="rgb(66, 66, 66)" stroke-width="1px" opacity="0.25"></line><line x1="0" y1="15.000000000000023" x2="278.4375" y2="15.000000000000023" fill="rgb(0, 0, 0)" stroke="rgb(66, 66, 66)" stroke-width="1px" opacity="0.25"></line><line x1="0" y1="0" x2="278.4375" y2="0" fill="rgb(0, 0, 0)" stroke="rgb(66, 66, 66)" stroke-width="1px" opacity="0.25"></line></g></g></g><g><g><line x1="0" y1="1050" x2="278.4375" y2="1050" fill="rgb(0, 0, 0)" stroke="rgb(153, 153, 153)" stroke-width="1.5px"></line></g></g><g><g><line x1="-86292267.1875" y1="0" x2="-86292267.1875" y2="165" fill="rgb(0, 0, 0)" stroke="rgb(153, 153, 153)" stroke-width="1.5px"></line></g></g><g><g><g><g><g><path stroke="rgb(255, 112, 67)" stroke-width="2px" d="M17.682482812499998,151.12845897674558L22.6639359375,136.81714317892119L27.630075,125.8456752732321L32.65741875,120.09244522380996L37.69755,115.96874957968024L42.7255125,114.02988989844593L47.759146875,105.64548812597347L52.7888625,98.33322880387448L57.8303859375,94.52547347597736L62.789409375,92.11451287004859L67.757146875,86.39659590318405L72.7124578125,81.20072616021902L77.692415625,78.30814255060697L82.68382031249999,76.04056036027207L87.72658125,73.38333185739994L92.762896875,70.85530662355228L97.80519375,67.78834997878049L102.854296875,65.26191153324623L107.903709375,63.036405536224194L112.95642187499999,60.302018127221864L118.00660781250001,58.02145699263628L123.0515859375,51.36581953301491L128.09713125,44.6441896677809L133.134890625,37.557419753485824L138.18131250000002,31.554340244032527L143.22804374999998,27.31461717249923L148.2806015625,23.470082834986755L153.32444531250002,18.878686645843352L158.38360312499998,15.18540918729261L163.4489484375,13.533646591343091L168.500990625,12.489378818550449L173.54045156249998,10.96454481521602L178.5981140625,11.585705341374096L183.66144843749998,11.84791844484944L188.71926562500002,12.360739069875178L193.77512343749999,13.586799165108964L198.8617640625,14.308145051214746L203.9387625,13.809602864400642L209.00096249999999,13.117418477235141L214.040475,13.742667915391023L219.08937187499998,13.485027642807784L224.131875,13.498682563278138L229.2020671875,14.032041003353473L234.2667421875,13.913864940875374L239.3147109375,14.556363862184954L244.37134218749998,13.475020912598001L249.4364296875,13.072685199737931L254.511984375,14.336309253034816L259.5761953125,16.02761278682963L264.7035703125,17.625123180165787" style="fill: none;" fill="none"></path></g></g></g></g><g opacity="0.2"><g><g><g><path stroke="rgb(255, 112, 67)" stroke-width="2px" d="M17.682482812499998,151.12845897674558L22.6639359375,125.95485448837275L27.630075,111.19787693023676L32.65741875,109.89584326744074L37.69755,107.29168653488155L42.7255125,109.46177244186396L47.759146875,84.28816795349117L52.7888625,78.64587306976313L57.8303859375,83.85418653488153L62.789409375,85.15622019767757L67.757146875,69.53127980232232L72.7124578125,65.62499999999994L77.692415625,69.53127980232232L82.68382031249999,69.09720897674555L87.72658125,65.19092917442316L92.762896875,63.020843267440746L97.80519375,58.24651122093194L102.854296875,57.37845897674554L107.903709375,56.07642531394953L112.95642187499999,51.73607468605035L118.00660781250001,50.86802244186394L123.0515859375,30.468749999999932L128.09713125,23.524332046508732L133.134890625,15.277791023254327L138.18131250000002,12.673634290695132L143.22804374999998,13.975667953491143L148.2806015625,11.371511220931948L153.32444531250002,4.427093267440729L158.38360312499998,3.5590410232543244L163.4489484375,8.333373069763127L168.500990625,9.201425313949514L173.54045156249998,6.163197755813538L178.5981140625,13.541686534881519L183.66144843749998,12.673634290695132L188.71926562500002,13.975667953491143L193.77512343749999,17.447876930236745L198.8617640625,16.579824686050358L203.9387625,12.239563465118335L209.00096249999999,10.937529802322322L214.040475,15.711772441863953L219.08937187499998,12.673634290695132L224.131875,13.541686534881519L229.2020671875,15.711772441863953L234.2667421875,13.541686534881519L239.3147109375,16.579824686050358L244.37134218749998,10.069477558135919L249.4364296875,11.805582046508727L254.511984375,18.31592917442315L259.5761953125,21.354156732559144L264.7035703125,22.656279802322327" style="fill: none;" fill="none"></path></g></g></g></g></g></g><g transform="translate(51, 165)" clip-path="url(#clip_1)"><clipPath id="clip_1"><rect width="278" height="35"></rect></clipPath><g><g visibility="inherit"><g><g transform="translate(0,0)" style="visibility: inherit;"><text transform="translate(3,14)" style="text-anchor: start; font-family: Roboto, sans-serif; font-size: 12px; font-weight: 200;" fill="rgb(33, 33, 33)" stroke="none" stroke-width="1px">09:40 PM</text></g><g transform="translate(61.875,0)" style="visibility: inherit;"><text transform="translate(3,14)" style="text-anchor: start; font-family: Roboto, sans-serif; font-size: 12px; font-weight: 200;" fill="rgb(33, 33, 33)" stroke="none" stroke-width="1px">10:00 PM</text></g><g transform="translate(154.6875,0)" style="visibility: inherit;"><text transform="translate(3,14)" style="text-anchor: start; font-family: Roboto, sans-serif; font-size: 12px; font-weight: 200;" fill="rgb(33, 33, 33)" stroke="none" stroke-width="1px">10:30 PM</text></g><g transform="translate(247.5,0)" style="visibility: hidden;"><text transform="translate(3,14)" style="text-anchor: start; font-family: Roboto, sans-serif; font-size: 12px; font-weight: 200;" fill="rgb(33, 33, 33)" stroke="none" stroke-width="1px">11:00 PM</text></g><g transform="translate(278.4375,0)" style="visibility: hidden;"><text transform="translate(3,14)" style="text-anchor: start; font-family: Roboto, sans-serif; font-size: 12px; font-weight: 200;" fill="rgb(33, 33, 33)" stroke="none" stroke-width="1px">11:10 PM</text></g></g><g><line x1="0" y1="0" x2="0" y2="17" fill="rgb(0, 0, 0)" stroke="rgb(204, 204, 204)" stroke-width="1px"></line><line x1="61.875" y1="0" x2="61.875" y2="17" fill="rgb(0, 0, 0)" stroke="rgb(204, 204, 204)" stroke-width="1px"></line><line x1="154.6875" y1="0" x2="154.6875" y2="17" fill="rgb(0, 0, 0)" stroke="rgb(204, 204, 204)" stroke-width="1px"></line><line x1="247.5" y1="0" x2="247.5" y2="17" fill="rgb(0, 0, 0)" stroke="rgb(204, 204, 204)" stroke-width="1px"></line><line x1="278.4375" y1="0" x2="278.4375" y2="17" fill="rgb(0, 0, 0)" stroke="rgb(204, 204, 204)" stroke-width="1px"></line></g><line x1="0" y1="0" x2="278.4375" y2="0" style="visibility: inherit;" fill="rgb(0, 0, 0)" stroke="rgb(204, 204, 204)" stroke-width="1px"></line></g><g visibility="inherit"><g><g transform="translate(139.21875,0)" style="visibility: inherit;"><text transform="translate(0,31)" style="text-anchor: middle; font-family: Roboto, sans-serif; font-size: 12px; font-weight: 200;" fill="rgb(33, 33, 33)" stroke="none" stroke-width="1px">January 12, 2023</text></g></g><g><line x1="0" y1="17" x2="0" y2="34" fill="rgb(0, 0, 0)" stroke="rgb(204, 204, 204)" stroke-width="1px"></line><line x1="278.4375" y1="17" x2="278.4375" y2="34" fill="rgb(0, 0, 0)" stroke="rgb(204, 204, 204)" stroke-width="1px"></line></g><line x1="0" y1="17" x2="278.4375" y2="17" style="visibility: inherit;" fill="rgb(0, 0, 0)" stroke="rgb(204, 204, 204)" stroke-width="1px"></line></g></g></g></g></g></svg>