<svg viewBox="0 0 330 200" xmlns="http://www.w3.org/2000/svg"><g><g><g><g><g><line x1="41.171875" y1="165" x2="36.171875" y2="165" style="visibility: inherit;" fill="rgb(0, 0, 0)" stroke="rgb(204, 204, 204)" stroke-width="1px"></line><line x1="41.171875" y1="153.21428571428572" x2="36.171875" y2="153.21428571428572" style="visibility: inherit;" fill="rgb(0, 0, 0)" stroke="rgb(204, 204, 204)" stroke-width="1px"></line><line x1="41.171875" y1="141.42857142857144" x2="36.171875" y2="141.42857142857144" style="visibility: inherit;" fill="rgb(0, 0, 0)" stroke="rgb(204, 204, 204)" stroke-width="1px"></line><line x1="41.171875" y1="129.64285714285717" x2="36.171875" y2="129.64285714285717" style="visibility: inherit;" fill="rgb(0, 0, 0)" stroke="rgb(204, 204, 204)" stroke-width="1px"></line><line x1="41.171875" y1="117.85714285714285" x2="36.171875" y2="117.85714285714285" style="visibility: inherit;" fill="rgb(0, 0, 0)" stroke="rgb(204, 204, 204)" stroke-width="1px"></line><line x1="41.171875" y1="106.07142857142856" x2="36.171875" y2="106.07142857142856" style="visibility: inherit;" fill="rgb(0, 0, 0)" stroke="rgb(204, 204, 204)" stroke-width="1px"></line><line x1="41.171875" y1="94.28571428571428" x2="36.171875" y2="94.28571428571428" style="visibility: inherit;" fill="rgb(0, 0, 0)" stroke="rgb(204, 204, 204)" stroke-width="1px"></line><line x1="41.171875" y1="82.49999999999999" x2="36.171875" y2="82.49999999999999" style="visibility: inherit;" fill="rgb(0, 0, 0)" stroke="rgb(204, 204, 204)" stroke-width="1px"></line><line x1="41.171875" y1="70.71428571428572" x2="36.171875" y2="70.71428571428572" style="visibility: inherit;" fill="rgb(0, 0, 0)" stroke="rgb(204, 204, 204)" stroke-width="1px"></line><line x1="41.171875" y1="58.92857142857142" x2="36.171875" y2="58.92857142857142" style="visibility: inherit;" fill="rgb(0, 0, 0)" stroke="rgb(204, 204, 204)" stroke-width="1px"></line><line x1="41.171875" y1="47.14285714285714" x2="36.171875" y2="47.14285714285714" style="visibility: inherit;" fill="rgb(0, 0, 0)" stroke="rgb(204, 204, 204)" stroke-width="1px"></line><line x1="41.171875" y1="35.35714285714284" x2="36.171875" y2="35.35714285714284" style="visibility: inherit;" fill="rgb(0, 0, 0)" stroke="rgb(204, 204, 204)" stroke-width="1px"></line><line x1="41.171875" y1="23.57142857142854" x2="36.171875" y2="23.57142857142854" style="visibility: inherit;" fill="rgb(0, 0, 0)" stroke="rgb(204, 204, 204)" stroke-width="1px"></line><line x1="41.171875" y1="11.785714285714299" x2="36.171875" y2="11.785714285714299" style="visibility: inherit;" fill="rgb(0, 0, 0)" stroke="rgb(204, 204, 204)" stroke-width="1px"></line><line x1="41.171875" y1="0" x2="36.171875" y2="0" style="visibility: inherit;" fill="rgb(0, 0, 0)" stroke="rgb(204, 204, 204)" stroke-width="1px"></line></g><g transform="translate(31.171875, 0)"><text x="0" y="165" dx="0em" dy="0.3em" style="text-anchor: end; visibility: hidden; font-family: Roboto, sans-serif; font-size: 12px; font-weight: 200;" fill="rgb(33, 33, 33)" stroke="none" stroke-width="1px">0.4</text><text x="0" y="153.21428571428572" dx="0em" dy="0.3em" style="text-anchor: end; visibility: inherit; font-family: Roboto, sans-serif; font-size: 12px; font-weight: 200;" fill="rgb(33, 33, 33)" stroke="none" stroke-width="1px">0.5</text><text x="0" y="141.42857142857144" dx="0em" dy="0.3em" style="text-anchor: end; visibility: hidden; font-family: Roboto, sans-serif; font-size: 12px; font-weight: 200;" fill="rgb(33, 33, 33)" stroke="none" stroke-width="1px">0.6</text><text x="0" y="129.64285714285717" dx="0em" dy="0.3em" style="text-anchor: end; visibility: inherit; font-family: Roboto, sans-serif; font-size: 12px; font-weight: 200;" fill="rgb(33, 33, 33)" stroke="none" stroke-width="1px">0.7</text><text x="0" y="117.85714285714285" dx="0em" dy="0.3em" style="text-anchor: end; visibility: hidden; font-family: Roboto, sans-serif; font-size: 12px; font-weight: 200;" fill="rgb(33, 33, 33)" stroke="none" stroke-width="1px">0.8</text><text x="0" y="106.07142857142856" dx="0em" dy="0.3em" style="text-anchor: end; visibility: inherit; font-family: Roboto, sans-serif; font-size: 12px; font-weight: 200;" fill="rgb(33, 33, 33)" stroke="none" stroke-width="1px">0.9</text><text x="0" y="94.28571428571428" dx="0em" dy="0.3em" style="text-anchor: end; visibility: hidden; font-family: Roboto, sans-serif; font-size: 12px; font-weight: 200;" fill="rgb(33, 33, 33)" stroke="none" stroke-width="1px">1</text><text x="0" y="82.49999999999999" dx="0em" dy="0.3em" style="text-anchor: end; visibility: inherit; font-family: Roboto, sans-serif; font-size: 12px; font-weight: 200;" fill="rgb(33, 33, 33)" stroke="none" stroke-width="1px">1.1</text><text x="0" y="70.71428571428572" dx="0em" dy="0.3em" style="text-anchor: end; visibility: hidden; font-family: Roboto, sans-serif; font-size: 12px; font-weight: 200;" fill="rgb(33, 33, 33)" stroke="none" stroke-width="1px">1.2</text><text x="0" y="58.92857142857142" dx="0em" dy="0.3em" style="text-anchor: end; visibility: inherit; font-family: Roboto, sans-serif; font-size: 12px; font-weight: 200;" fill="rgb(33, 33, 33)" stroke="none" stroke-width="1px">1.3</text><text x="0" y="47.14285714285714" dx="0em" dy="0.3em" style="text-anchor: end; visibility: hidden; font-family: Roboto, sans-serif; font-size: 12px; font-weight: 200;" fill="rgb(33, 33, 33)" stroke="none" stroke-width="1px">1.4</text><text x="0" y="35.35714285714284" dx="0em" dy="0.3em" style="text-anchor: end; visibility: inherit; font-family: Roboto, sans-serif; font-size: 12px; font-weight: 200;" fill="rgb(33, 33, 33)" stroke="none" stroke-width="1px">1.5</text><text x="0" y="23.57142857142854" dx="0em" dy="0.3em" style="text-anchor: end; visibility: hidden; font-family: Roboto, sans-serif; font-size: 12px; font-weight: 200;" fill="rgb(33, 33, 33)" stroke="none" stroke-width="1px">1.6</text><text x="0" y="11.785714285714299" dx="0em" dy="0.3em" style="text-anchor: end; visibility: inherit; font-family: Roboto, sans-serif; font-size: 12px; font-weight: 200;" fill="rgb(33, 33, 33)" stroke="none" stroke-width="1px">1.7</text><text x="0" y="0" dx="0em" dy="0.3em" style="text-anchor: end; visibility: hidden; font-family: Roboto, sans-serif; font-size: 12px; font-weight: 200;" fill="rgb(33, 33, 33)" stroke="none" stroke-width="1px">1.8</text></g><line x1="41.171875" y1="0" x2="41.171875" y2="165" fill="rgb(0, 0, 0)" stroke="rgb(204, 204, 204)" stroke-width="1px"></line></g></g><g transform="translate(41, 0)" clip-path="url(#clip_0)"><clipPath id="clip_0"><rect width="288" height="165"></rect></clipPath><g><g><g><line x1="16.046006944444443" y1="0" x2="16.046006944444443" y2="165" fill="rgb(0, 0, 0)" stroke="rgb(66, 66, 66)" stroke-width="1px" opacity="0.25"></line><line x1="64.18402777777777" y1="0" x2="64.18402777777777" y2="165" fill="rgb(0, 0, 0)" stroke="rgb(66, 66, 66)" stroke-width="1px" opacity="0.25"></line><line x1="112.32204861111111" y1="0" x2="112.32204861111111" y2="165" fill="rgb(0, 0, 0)" stroke="rgb(66, 66, 66)" stroke-width="1px" opacity="0.25"></line><line x1="160.46006944444446" y1="0" x2="160.46006944444446" y2="165" fill="rgb(0, 0, 0)" stroke="rgb(66, 66, 66)" stroke-width="1px" opacity="0.25"></line><line x1="208.59809027777777" y1="0" x2="208.59809027777777" y2="165" fill="rgb(0, 0, 0)" stroke="rgb(66, 66, 66)" stroke-width="1px" opacity="0.25"></line><line x1="256.7361111111111" y1="0" x2="256.7361111111111" y2="165" fill="rgb(0, 0, 0)" stroke="rgb(66, 66, 66)" stroke-width="1px" opacity="0.25"></line></g><g><line x1="0" y1="165" x2="288.828125" y2="165" fill="rgb(0, 0, 0)" stroke="rgb(66, 66, 66)" stroke-width="1px" opacity="0.25"></line><line x1="0" y1="153.21428571428572" x2="288.828125" y2="153.21428571428572" fill="rgb(0, 0, 0)" stroke="rgb(66, 66, 66)" stroke-width="1px" opacity="0.25"></line><line x1="0" y1="141.42857142857144" x2="288.828125" y2="141.42857142857144" fill="rgb(0, 0, 0)" stroke="rgb(66, 66, 66)" stroke-width="1px" opacity="0.25"></line><line x1="0" y1="129.64285714285717" x2="288.828125" y2="129.64285714285717" fill="rgb(0, 0, 0)" stroke="rgb(66, 66, 66)" stroke-width="1px" opacity="0.25"></line><line x1="0" y1="117.85714285714285" x2="288.828125" y2="117.85714285714285" fill="rgb(0, 0, 0)" stroke="rgb(66, 66, 66)" stroke-width="1px" opacity="0.25"></line><line x1="0" y1="106.07142857142856" x2="288.828125" y2="106.07142857142856" fill="rgb(0, 0, 0)" stroke="rgb(66, 66, 66)" stroke-width="1px" opacity="0.25"></line><line x1="0" y1="94.28571428571428" x2="288.828125" y2="94.28571428571428" fill="rgb(0, 0, 0)" stroke="rgb(66, 66, 66)" stroke-width="1px" opacity="0.25"></line><line x1="0" y1="82.49999999999999" x2="288.828125" y2="82.49999999999999" fill="rgb(0, 0, 0)" stroke="rgb(66, 66, 66)" stroke-width="1px" opacity="0.25"></line><line x1="0" y1="70.71428571428572" x2="288.828125" y2="70.71428571428572" fill="rgb(0, 0, 0)" stroke="rgb(66, 66, 66)" stroke-width="1px" opacity="0.25"></line><line x1="0" y1="58.92857142857142" x2="288.828125" y2="58.92857142857142" fill="rgb(0, 0, 0)" stroke="rgb(66, 66, 66)" stroke-width="1px" opacity="0.25"></line><line x1="0" y1="47.14285714285714" x2="288.828125" y2="47.14285714285714" fill="rgb(0, 0, 0)" stroke="rgb(66, 66, 66)" stroke-width="1px" opacity="0.25"></line><line x1="0" y1="35.35714285714284" x2="288.828125" y2="35.35714285714284" fill="rgb(0, 0, 0)" stroke="rgb(66, 66, 66)" stroke-width="1px" opacity="0.25"></line><line x1="0" y1="23.57142857142854" x2="288.828125" y2="23.57142857142854" fill="rgb(0, 0, 0)" stroke="rgb(66, 66, 66)" stroke-width="1px" opacity="0.25"></line><line x1="0" y1="11.785714285714299" x2="288.828125" y2="11.785714285714299" fill="rgb(0, 0, 0)" stroke="rgb(66, 66, 66)" stroke-width="1px" opacity="0.25"></line><line x1="0" y1="0" x2="288.828125" y2="0" fill="rgb(0, 0, 0)" stroke="rgb(66, 66, 66)" stroke-width="1px" opacity="0.25"></line></g></g></g><g><g><line x1="0" y1="212.14285714285717" x2="288.828125" y2="212.14285714285717" fill="rgb(0, 0, 0)" stroke="rgb(153, 153, 153)" stroke-width="1.5px"></line></g></g><g><g><line x1="-89512489.2795139" y1="0" x2="-89512489.2795139" y2="165" fill="rgb(0, 0, 0)" stroke="rgb(153, 153, 153)" stroke-width="1.5px"></line></g></g><g><g><g><g><g><path stroke="rgb(255, 112, 67)" stroke-width="2px" d="M18.342297511574074,12.425980057035147L23.509700101273147,18.288588694938213L28.661163657407407,23.384803915174523L33.87611591435185,30.21918700755223L39.104279383680556,38.28360993325766L44.31992696759259,46.862057002767976L49.541351114004634,54.08022514776419L54.75881724537037,60.984055257522954L59.98842485532408,68.09886590344188L65.1325607349537,75.11017725016092L70.28562889178241,81.6597166528231L75.42591372974537,87.84184799273743L80.59171171875,93.60066232880045L85.76938375289352,98.89304003865638L91.00032853009259,103.8401914991785L96.22458747106481,108.57846213597071L101.45499738136574,113.0497837139322L106.69252102141203,117.18907058921808L111.93041906828704,120.99947273630731L117.17168677662036,124.49540708604681L122.41028015046297,127.67117443038254L127.64352485532406,130.51547800816164L132.87741140046296,133.03303485673226L138.10316796875,135.25549720987323L143.33791030092593,137.2295263511282L148.57292006655092,138.99355482044862L153.81408080150464,140.5708861673295L159.04614879918984,141.9770271541218L164.29404885706018,143.22623841464124L169.54842080439815,144.3327221410662L174.78904667245368,145.30934305987984L180.0165148148148,146.16697361465208L185.26291724537037,146.91507358908544L190.51525669849536,147.56262964088594L195.7618195891204,148.118660769968L201.0063499855324,148.59221866999383L206.28281193576387,148.9922301273938L211.549271875,149.32741267203193L216.80038113425925,149.60625775543028L222.02790276331018,149.83696196739112L227.2652124565972,150.02725791166364L232.49594328703705,150.18419435046218L237.7553429832176,150.3139151112442L243.00901960358797,150.42151156003467L248.24536653645833,150.51095462320617L253.49069923321758,150.58512105339872L258.74480374710646,150.64587260891395L264.00976605902775,150.69419910002688L269.2629612991898,150.73037943902764L274.58167773437503,150.75414111999166" style="fill: none;" fill="none"></path></g></g></g></g><g opacity="0.2"><g><g><g><path stroke="rgb(255, 112, 67)" stroke-width="2px" d="M18.342297511574074,12.425980057035147L23.509700101273147,22.738308651106685L28.661163657407407,30.188664027622746L33.87611591435185,42.33194512980323L39.104279383680556,55.25273476328167L44.31992696759259,67.07360412393297L49.541351114004634,72.46683546475L54.75881724537037,79.5717657463891L59.98842485532408,88.03822108677457L65.1325607349537,95.34557896000999L70.28562889178241,100.97794967038291L75.42591372974537,106.37410334178378L80.59171171875,111.07442621673857L85.76938375289352,115.09833493403028L91.00032853009259,119.0925707561629L96.22458747106481,123.26257492814744L101.45499738136574,126.96084750550133L106.69252102141203,130.10522603988647L111.93041906828704,132.9160092983927L117.17168677662036,135.44702857732773L122.41028015046297,137.63260168688637L127.64352485532406,139.44589376449585L132.87741140046296,140.94338446855545L138.10316796875,142.2425500835691L143.33791030092593,143.43818370785033L148.57292006655092,144.54351310219084L153.81408080150464,145.53467490843366L159.04614879918984,146.40290915966034L164.29404885706018,147.1587320310729L169.54842080439815,147.81628451177053L174.78904667245368,148.38430549417222L180.0165148148148,148.86745244264603L185.26291724537037,149.27077621221542L190.51525669849536,149.6018003991672L195.7618195891204,149.869664311409L201.0063499855324,150.08353535618102L206.28281193576387,150.25195573057448L211.549271875,150.3829899430275L216.80038113425925,150.48442150865282L222.02790276331018,150.5635211297444L227.2652124565972,150.6265619822911L232.49594328703705,150.67844037498747L237.7553429832176,150.7224509545735L243.00901960358797,150.76037100383215L248.24536653645833,150.79264308725084L253.49069923321758,150.81869819334577L258.74480374710646,150.83720160382134L264.00976605902775,150.84639711039407L269.2629612991898,150.84432478461946L274.58167773437503,150.82897552422116" style="fill: none;" fill="none"></path></g></g></g></g></g></g><g transform="translate(41, 165)" clip-path="url(#clip_1)"><clipPath id="clip_1"><rect width="288" height="35"></rect></clipPath><g><g visibility="inherit"><g><g transform="translate(0,0)" style="visibility: inherit;"><text transform="translate(3,14)" style="text-anchor: start; font-family: Roboto, sans-serif; font-size: 12px; font-weight: 200;" fill="rgb(33, 33, 33)" stroke="none" stroke-width="1px">09:40 PM</text></g><g transform="translate(64.18402777777777,0)" style="visibility: inherit;"><text transform="translate(3,14)" style="text-anchor: start; font-family: Roboto, sans-serif; font-size: 12px; font-weight: 200;" fill="rgb(33, 33, 33)" stroke="none" stroke-width="1px">10:00 PM</text></g><g transform="translate(160.46006944444446,0)" style="visibility: inherit;"><text transform="translate(3,14)" style="text-anchor: start; font-family: Roboto, sans-serif; font-size: 12px; font-weight: 200;" fill="rgb(33, 33, 33)" stroke="none" stroke-width="1px">10:30 PM</text></g><g transform="translate(256.7361111111111,0)" style="visibility: hidden;"><text transform="translate(3,14)" style="text-anchor: start; font-family: Roboto, sans-serif; font-size: 12px; font-weight: 200;" fill="rgb(33, 33, 33)" stroke="none" stroke-width="1px">11:00 PM</text></g><g transform="translate(288.828125,0)" style="visibility: hidden;"><text transform="translate(3,14)" style="text-anchor: start; font-family: Roboto, sans-serif; font-size: 12px; font-weight: 200;" fill="rgb(33, 33, 33)" stroke="none" stroke-width="1px">11:10 PM</text></g></g><g><line x1="0" y1="0" x2="0" y2="17" fill="rgb(0, 0, 0)" stroke="rgb(204, 204, 204)" stroke-width="1px"></line><line x1="64.18402777777777" y1="0" x2="64.18402777777777" y2="17" fill="rgb(0, 0, 0)" stroke="rgb(204, 204, 204)" stroke-width="1px"></line><line x1="160.46006944444446" y1="0" x2="160.46006944444446" y2="17" fill="rgb(0, 0, 0)" stroke="rgb(204, 204, 204)" stroke-width="1px"></line><line x1="256.7361111111111" y1="0" x2="256.7361111111111" y2="17" fill="rgb(0, 0, 0)" stroke="rgb(204, 204, 204)" stroke-width="1px"></line><line x1="288.828125" y1="0" x2="288.828125" y2="17" fill="rgb(0, 0, 0)" stroke="rgb(204, 204, 204)" stroke-width="1px"></line></g><line x1="0" y1="0" x2="288.828125" y2="0" style="visibility: inherit;" fill="rgb(0, 0, 0)" stroke="rgb(204, 204, 204)" stroke-width="1px"></line></g><g visibility="inherit"><g><g transform="translate(144.4140625,0)" style="visibility: inherit;"><text transform="translate(0,31)" style="text-anchor: middle; font-family: Roboto, sans-serif; font-size: 12px; font-weight: 200;" fill="rgb(33, 33, 33)" stroke="none" stroke-width="1px">January 12, 2023</text></g></g><g><line x1="0" y1="17" x2="0" y2="34" fill="rgb(0, 0, 0)" stroke="rgb(204, 204, 204)" stroke-width="1px"></line><line x1="288.828125" y1="17" x2="288.828125" y2="34" fill="rgb(0, 0, 0)" stroke="rgb(204, 204, 204)" stroke-width="1px"></line></g><line x1="0" y1="17" x2="288.828125" y2="17" style="visibility: inherit;" fill="rgb(0, 0, 0)" stroke="rgb(204, 204, 204)" stroke-width="1px"></line></g></g></g></g></g></svg>